<?xml version="1.0" encoding="UTF-8"?>
<svg id="Layer_1" data-name="Layer 1" xmlns="http://www.w3.org/2000/svg" viewBox="0 0 64 64">
  <defs>
    <style>
      .cls-1 {
        opacity: .5;
      }

      .cls-1, .cls-2, .cls-3, .cls-4 {
        fill: #fff;
      }

      .cls-2 {
        opacity: .29;
      }

      .cls-3 {
        opacity: .61;
      }

      .cls-4 {
        opacity: .71;
      }
    </style>
  </defs>
  <path class="cls-4" d="M32,42.7c-5.9,0-10.7-4.8-10.7-10.7s4.8-10.7,10.7-10.7,10.7,4.8,10.7,10.7-4.8,10.7-10.7,10.7ZM32,22.87c-5.03,0-9.13,4.09-9.13,9.13s4.09,9.13,9.13,9.13,9.13-4.09,9.13-9.13-4.09-9.13-9.13-9.13Z"/>
  <path class="cls-3" d="M32,48.94c-9.34,0-16.94-7.6-16.94-16.94s7.6-16.94,16.94-16.94,16.94,7.6,16.94,16.94-7.6,16.94-16.94,16.94ZM32,16.13c-8.75,0-15.87,7.12-15.87,15.87s7.12,15.88,15.87,15.88,15.87-7.12,15.87-15.88-7.12-15.87-15.87-15.87Z"/>
  <path class="cls-1" d="M32,54.78c-12.56,0-22.78-10.22-22.78-22.78s10.22-22.78,22.78-22.78,22.78,10.22,22.78,22.78-10.22,22.78-22.78,22.78ZM32,10.27c-11.98,0-21.73,9.75-21.73,21.73s9.75,21.73,21.73,21.73,21.73-9.75,21.73-21.73-9.75-21.73-21.73-21.73Z"/>
  <path class="cls-2" d="M32,60.09c-15.49,0-28.09-12.6-28.09-28.09S16.51,3.91,32,3.91s28.09,12.6,28.09,28.09-12.6,28.09-28.09,28.09ZM32,4.41c-15.22,0-27.59,12.38-27.59,27.59s12.38,27.59,27.59,27.59,27.59-12.38,27.59-27.59S47.22,4.41,32,4.41Z"/>
</svg>