<?xml version="1.0" encoding="UTF-8"?>
<svg id="Layer_1" data-name="Layer 1" xmlns="http://www.w3.org/2000/svg" viewBox="0 0 64 64">
  <defs>
    <style>
      .cls-1 {
        opacity: .61;
      }

      .cls-1, .cls-2 {
        fill: #fff;
      }

      .cls-2 {
        opacity: .71;
      }
    </style>
  </defs>
  <path class="cls-2" d="M32,42.7c-5.9,0-10.7-4.8-10.7-10.7s4.8-10.7,10.7-10.7,10.7,4.8,10.7,10.7-4.8,10.7-10.7,10.7ZM32,22.87c-5.03,0-9.13,4.09-9.13,9.13s4.09,9.13,9.13,9.13,9.13-4.09,9.13-9.13-4.09-9.13-9.13-9.13Z"/>
  <path class="cls-1" d="M32,48.94c-9.34,0-16.94-7.6-16.94-16.94s7.6-16.94,16.94-16.94,16.94,7.6,16.94,16.94-7.6,16.94-16.94,16.94ZM32,16.13c-8.75,0-15.87,7.12-15.87,15.87s7.12,15.88,15.87,15.88,15.87-7.12,15.87-15.88-7.12-15.87-15.87-15.87Z"/>
</svg>